<?xml version="1.0" encoding="UTF-8" standalone="no"?>
<!DOCTYPE svg PUBLIC "-//W3C//DTD SVG 1.1//EN"
 "http://www.w3.org/Graphics/SVG/1.1/DTD/svg11.dtd">
<!-- Generated by graphviz version 2.46.0 (20210118.1747)
 -->
<!-- Pages: 1 -->
<svg width="429pt" height="179pt"
 viewBox="0.00 0.00 429.00 179.09" xmlns="http://www.w3.org/2000/svg" xmlns:xlink="http://www.w3.org/1999/xlink">
<g id="graph0" class="graph" transform="scale(1 1) rotate(0) translate(4 175.09)">
<polygon fill="white" stroke="transparent" points="-4,4 -4,-175.09 425,-175.09 425,4 -4,4"/>
<!-- 2084532820488 -->
<g id="node1" class="node">
<title>2084532820488</title>
<polygon fill="#fada5e" stroke="#fada5e" points="56,-115.09 0,-115.09 0,-77.09 56,-77.09 56,-115.09"/>
<text text-anchor="middle" x="28" y="-99.89" font-family="Times New Roman,serif" font-size="14.00">Tensor</text>
<text text-anchor="middle" x="28" y="-84.89" font-family="Times New Roman,serif" font-size="14.00">(2,)</text>
</g>
<!-- 2084532820808 -->
<g id="node3" class="node">
<title>2084532820808</title>
<path fill="none" stroke="black" d="M136.5,-171.09C136.5,-171.09 106.5,-171.09 106.5,-171.09 100.5,-171.09 94.5,-165.09 94.5,-159.09 94.5,-159.09 94.5,-145.09 94.5,-145.09 94.5,-139.09 100.5,-133.09 106.5,-133.09 106.5,-133.09 136.5,-133.09 136.5,-133.09 142.5,-133.09 148.5,-139.09 148.5,-145.09 148.5,-145.09 148.5,-159.09 148.5,-159.09 148.5,-165.09 142.5,-171.09 136.5,-171.09"/>
<text text-anchor="middle" x="121.5" y="-155.89" font-family="Times New Roman,serif" font-size="14.00">Mul</text>
<text text-anchor="middle" x="121.5" y="-140.89" font-family="Times New Roman,serif" font-size="14.00">(2,)</text>
</g>
<!-- 2084532820488&#45;&gt;2084532820808 -->
<g id="edge1" class="edge">
<title>2084532820488&#45;&gt;2084532820808</title>
<path fill="none" stroke="black" d="M56.45,-112.89C65.64,-118.51 76.01,-124.86 85.69,-130.78"/>
<polygon fill="black" stroke="black" points="83.97,-133.83 94.32,-136.07 87.62,-127.86 83.97,-133.83"/>
</g>
<!-- 2084940464072 -->
<g id="node4" class="node">
<title>2084940464072</title>
<path fill="none" stroke="black" d="M139,-115.09C139,-115.09 104,-115.09 104,-115.09 98,-115.09 92,-109.09 92,-103.09 92,-103.09 92,-89.09 92,-89.09 92,-83.09 98,-77.09 104,-77.09 104,-77.09 139,-77.09 139,-77.09 145,-77.09 151,-83.09 151,-89.09 151,-89.09 151,-103.09 151,-103.09 151,-109.09 145,-115.09 139,-115.09"/>
<text text-anchor="middle" x="121.5" y="-99.89" font-family="Times New Roman,serif" font-size="14.00">Matmul</text>
<text text-anchor="middle" x="121.5" y="-84.89" font-family="Times New Roman,serif" font-size="14.00">()</text>
</g>
<!-- 2084532820488&#45;&gt;2084940464072 -->
<g id="edge3" class="edge">
<title>2084532820488&#45;&gt;2084940464072</title>
<path fill="none" stroke="black" d="M56.45,-96.09C64.39,-96.09 73.2,-96.09 81.69,-96.09"/>
<polygon fill="black" stroke="black" points="81.8,-99.59 91.8,-96.09 81.8,-92.59 81.8,-99.59"/>
</g>
<!-- 2084946100552 -->
<g id="node7" class="node">
<title>2084946100552</title>
<path fill="none" stroke="black" d="M319,-75.09C319,-75.09 289,-75.09 289,-75.09 283,-75.09 277,-69.09 277,-63.09 277,-63.09 277,-49.09 277,-49.09 277,-43.09 283,-37.09 289,-37.09 289,-37.09 319,-37.09 319,-37.09 325,-37.09 331,-43.09 331,-49.09 331,-49.09 331,-63.09 331,-63.09 331,-69.09 325,-75.09 319,-75.09"/>
<text text-anchor="middle" x="304" y="-59.89" font-family="Times New Roman,serif" font-size="14.00">Div</text>
<text text-anchor="middle" x="304" y="-44.89" font-family="Times New Roman,serif" font-size="14.00">(2,)</text>
</g>
<!-- 2084532820488&#45;&gt;2084946100552 -->
<g id="edge8" class="edge">
<title>2084532820488&#45;&gt;2084946100552</title>
<path fill="none" stroke="black" d="M37.02,-76.89C46.7,-56.55 65.1,-25.54 92,-12.09 149.37,16.6 224.52,-12.86 267.91,-35.46"/>
<polygon fill="black" stroke="black" points="266.46,-38.65 276.93,-40.3 269.77,-32.49 266.46,-38.65"/>
</g>
<!-- 2084532820744 -->
<g id="node2" class="node">
<title>2084532820744</title>
<polygon fill="#fada5e" stroke="#fada5e" points="56,-171.09 0,-171.09 0,-133.09 56,-133.09 56,-171.09"/>
<text text-anchor="middle" x="28" y="-155.89" font-family="Times New Roman,serif" font-size="14.00">Tensor</text>
<text text-anchor="middle" x="28" y="-140.89" font-family="Times New Roman,serif" font-size="14.00">(2,)</text>
</g>
<!-- 2084532820744&#45;&gt;2084532820808 -->
<g id="edge2" class="edge">
<title>2084532820744&#45;&gt;2084532820808</title>
<path fill="none" stroke="black" d="M56.45,-152.09C65.17,-152.09 74.96,-152.09 84.2,-152.09"/>
<polygon fill="black" stroke="black" points="84.32,-155.59 94.32,-152.09 84.32,-148.59 84.32,-155.59"/>
</g>
<!-- 2084532820744&#45;&gt;2084940464072 -->
<g id="edge4" class="edge">
<title>2084532820744&#45;&gt;2084940464072</title>
<path fill="none" stroke="black" d="M56.45,-135.29C64.82,-130.16 74.17,-124.44 83.08,-118.99"/>
<polygon fill="black" stroke="black" points="85.09,-121.86 91.8,-113.66 81.44,-115.89 85.09,-121.86"/>
</g>
<!-- 2084946101320 -->
<g id="node8" class="node">
<title>2084946101320</title>
<path fill="none" stroke="black" d="M409,-98.09C409,-98.09 379,-98.09 379,-98.09 373,-98.09 367,-92.09 367,-86.09 367,-86.09 367,-72.09 367,-72.09 367,-66.09 373,-60.09 379,-60.09 379,-60.09 409,-60.09 409,-60.09 415,-60.09 421,-66.09 421,-72.09 421,-72.09 421,-86.09 421,-86.09 421,-92.09 415,-98.09 409,-98.09"/>
<text text-anchor="middle" x="394" y="-82.89" font-family="Times New Roman,serif" font-size="14.00">Add</text>
<text text-anchor="middle" x="394" y="-67.89" font-family="Times New Roman,serif" font-size="14.00">(2,)</text>
</g>
<!-- 2084532820808&#45;&gt;2084946101320 -->
<g id="edge9" class="edge">
<title>2084532820808&#45;&gt;2084946101320</title>
<path fill="none" stroke="black" d="M148.93,-144.96C197.74,-131.78 302.05,-103.63 357.17,-88.76"/>
<polygon fill="black" stroke="black" points="358.12,-92.13 366.86,-86.14 356.3,-85.37 358.12,-92.13"/>
</g>
<!-- 2084940681032 -->
<g id="node6" class="node">
<title>2084940681032</title>
<path fill="none" stroke="black" d="M229,-75.09C229,-75.09 199,-75.09 199,-75.09 193,-75.09 187,-69.09 187,-63.09 187,-63.09 187,-49.09 187,-49.09 187,-43.09 193,-37.09 199,-37.09 199,-37.09 229,-37.09 229,-37.09 235,-37.09 241,-43.09 241,-49.09 241,-49.09 241,-63.09 241,-63.09 241,-69.09 235,-75.09 229,-75.09"/>
<text text-anchor="middle" x="214" y="-59.89" font-family="Times New Roman,serif" font-size="14.00">Pow</text>
<text text-anchor="middle" x="214" y="-44.89" font-family="Times New Roman,serif" font-size="14.00">()</text>
</g>
<!-- 2084940464072&#45;&gt;2084940681032 -->
<g id="edge5" class="edge">
<title>2084940464072&#45;&gt;2084940681032</title>
<path fill="none" stroke="black" d="M151.13,-83.43C159.5,-79.73 168.75,-75.65 177.49,-71.78"/>
<polygon fill="black" stroke="black" points="178.97,-74.96 186.7,-67.71 176.14,-68.55 178.97,-74.96"/>
</g>
<!-- 2084940678792 -->
<g id="node5" class="node">
<title>2084940678792</title>
<polygon fill="#fada5e" stroke="#fada5e" points="149.5,-59.09 93.5,-59.09 93.5,-21.09 149.5,-21.09 149.5,-59.09"/>
<text text-anchor="middle" x="121.5" y="-43.89" font-family="Times New Roman,serif" font-size="14.00">Tensor</text>
<text text-anchor="middle" x="121.5" y="-28.89" font-family="Times New Roman,serif" font-size="14.00">()</text>
</g>
<!-- 2084940678792&#45;&gt;2084940681032 -->
<g id="edge6" class="edge">
<title>2084940678792&#45;&gt;2084940681032</title>
<path fill="none" stroke="black" d="M149.65,-44.89C158.2,-46.4 167.78,-48.09 176.86,-49.7"/>
<polygon fill="black" stroke="black" points="176.34,-53.16 186.8,-51.46 177.56,-46.27 176.34,-53.16"/>
</g>
<!-- 2084940681032&#45;&gt;2084946100552 -->
<g id="edge7" class="edge">
<title>2084940681032&#45;&gt;2084946100552</title>
<path fill="none" stroke="black" d="M241.4,-56.09C249.39,-56.09 258.31,-56.09 266.82,-56.09"/>
<polygon fill="black" stroke="black" points="266.92,-59.59 276.92,-56.09 266.92,-52.59 266.92,-59.59"/>
</g>
<!-- 2084946100552&#45;&gt;2084946101320 -->
<g id="edge10" class="edge">
<title>2084946100552&#45;&gt;2084946101320</title>
<path fill="none" stroke="black" d="M331.4,-62.99C339.48,-65.1 348.51,-67.46 357.1,-69.71"/>
<polygon fill="black" stroke="black" points="356.36,-73.13 366.92,-72.27 358.13,-66.36 356.36,-73.13"/>
</g>
</g>
</svg>
